<?xml version="1.0" encoding="iso-8859-1"?>
<!-- Generator: Adobe Illustrator 19.2.1, SVG Export Plug-In . SVG Version: 6.00 Build 0)  -->
<svg version="1.1" xmlns="http://www.w3.org/2000/svg" xmlns:xlink="http://www.w3.org/1999/xlink" x="0px" y="0px"
	 viewBox="0 0 21.996 32" style="enable-background:new 0 0 21.996 32;" xml:space="preserve">
<g id="Layer_19">
	<path style="fill:#FF9999;" d="M15.838,23l-4.04-8.08c1.46-0.3,2.64-1.4,3.04-2.84l5.74,11.44c0.98,1.98,0.18,4.38-1.8,5.38
		L15.838,23z"/>
	<path style="fill:#FF9999;" d="M6.178,23l-2.96,5.9c-1.98-1-2.78-3.4-1.8-5.38l5.74-11.44c0.4,1.44,1.58,2.54,3.04,2.84L6.178,23z"
		/>
	<path style="fill:#664848;" d="M11.573,13.946C11.409,13.983,11.231,14,10.998,14c-0.233,0-0.411-0.017-0.575-0.054l-0.45,1.949
		C10.329,15.977,10.671,16,10.998,16c0.327,0,0.669-0.023,1.025-0.106L11.573,13.946L11.573,13.946z"/>
	<path style="fill:#664848;" d="M21.474,23.076l-0.005-0.01L15.89,11.947c0.062-0.302,0.109-0.615,0.109-0.947
		C15.996,8.586,14,6.569,12,6.102V1c0-0.552-0.448-1-1-1s-1,0.448-1,1v5.102C8,6.569,6.002,8.586,5.999,11
		c0,0.332,0.045,0.645,0.107,0.947L0.525,23.072l-0.002,0.005c-0.353,0.713-0.521,1.476-0.521,2.224C0,26.846,1,28.338,2,29.302V31
		c0,0.552,0.448,1,1,1s1-0.448,1-1v-1.425L6.795,24h4.203h4.221L18,29.577V31c0,0.552,0.448,1,1,1s1-0.448,1-1v-1.698
		c1-0.964,1.998-2.456,1.997-4.001C21.997,24.552,21.827,23.789,21.474,23.076z M10.998,8c1.643,0.003,2.997,1.357,3,3
		c0,0.274-0.043,0.536-0.119,0.796l-0.005,0.017c-0.298,1.076-1.187,1.905-2.278,2.128l-0.599,0.123l-0.599-0.123
		c-1.091-0.223-1.98-1.052-2.278-2.128l-0.005-0.017C8.041,11.536,7.998,11.274,7.998,11C8.001,9.357,9.355,8.003,10.998,8z
		 M5.559,22H4.998c-0.552,0-1,0.448-1,1c0,0.41,0.248,0.761,0.602,0.915l-1.742,3.472C2.314,26.821,2.001,26.076,2,25.3
		c0-0.45,0.1-0.903,0.314-1.336l4.884-9.733c0.441,0.521,0.986,0.948,1.603,1.252L5.559,22z M10.998,22H7.793l3.206-6.443L14.22,22
		H10.998z M19.14,27.385l-1.733-3.477c0.347-0.157,0.59-0.502,0.59-0.908c0-0.552-0.448-1-1-1h-0.542l-3.259-6.518
		c0.616-0.304,1.16-0.73,1.601-1.251l4.884,9.733c0.214,0.433,0.314,0.887,0.314,1.336C19.995,26.075,19.683,26.818,19.14,27.385z"
		/>
</g>
<g id="Layer_1">
</g>
</svg>
