<?xml version="1.0" encoding="iso-8859-1"?>
<!-- Generator: Adobe Illustrator 19.2.1, SVG Export Plug-In . SVG Version: 6.00 Build 0)  -->
<svg version="1.1" xmlns="http://www.w3.org/2000/svg" xmlns:xlink="http://www.w3.org/1999/xlink" x="0px" y="0px"
	 viewBox="0 0 32 32" style="enable-background:new 0 0 32 32;" xml:space="preserve">
<g id="Layer_28">
	<path style="fill:#99DDFF;" d="M31,16c0,0.94-0.08,1.86-0.26,2.74L21,13.12l-5-2.9l9.72-5.62C28.96,7.34,31,11.44,31,16z"/>
	<path style="fill:#99DDFF;" d="M21,13.12l9.74,5.62C29.76,24.04,26,28.38,21,30.12V18.88V13.12z"/>
	<path style="fill:#99DDFF;" d="M25.72,4.6L16,10.22l-5,2.9V1.88C12.56,1.3,14.24,1,16,1C19.72,1,23.1,2.34,25.72,4.6z"/>
	<path style="fill:#99DDFF;" d="M21,18.88v11.24C19.44,30.7,17.76,31,16,31c-3.72,0-7.1-1.34-9.72-3.6L16,21.78L21,18.88z"/>
	<path style="fill:#99DDFF;" d="M16,21.78L6.28,27.4C3.04,24.66,1,20.56,1,16c0-0.94,0.08-1.86,0.26-2.74L11,18.88L16,21.78z"/>
	<path style="fill:#99DDFF;" d="M11,13.12v5.76l-9.74-5.62C2.24,7.96,6,3.62,11,1.88V13.12z"/>
	<g>
		<path style="fill:#664848;" d="M0,13c0,0,0,0.064,0,0.066C0,13.07,0.138,13,0.137,13H0z"/>
		<path style="fill:#664848;" d="M32,19c0,0,0-0.064,0-0.066C32,18.93,31.862,19,31.863,19H32z"/>
		<polygon style="fill:#664848;" points="26.373,3.843 26.366,3.836 26.369,3.839 		"/>
	</g>
	<path style="fill:#664848;" d="M16,0C7.163,0,0,7.163,0,16s7.163,16,16,16s16-7.163,16-16S24.837,0,16,0z M12,2.608
		C13.261,2.215,14.596,2,16,2c2.961,0.001,5.674,0.911,7.926,2.482l-8.432,4.875L12,11.384V2.608z M10,3.375v9.745v4.029
		l-7.607-4.389C3.379,8.602,6.217,5.155,10,3.375z M2,16c0-0.384,0.021-0.759,0.051-1.129l8.45,4.875l-0.002-0.001l3.506,2.034
		l-7.582,4.384C3.701,23.618,2,20.01,2,16z M20,29.392c-1.261,0.393-2.596,0.697-4,0.697c-2.961-0.001-5.674-0.823-7.926-2.393
		L20,20.616V29.392z M20,18.304l-4,2.32l-4-2.32v-4.608l4-2.32l4,2.32V18.304z M22,28.625V18.88v-4.029l7.607,4.389
		C28.621,23.398,25.783,26.845,22,28.625z M21.5,12.254l0.002,0.001l-3.506-2.034l7.582-4.384C28.299,8.382,30,11.99,30,16
		c0,0.384-0.021,0.759-0.051,1.129L21.5,12.254z"/>
</g>
<g id="Layer_1">
</g>
</svg>
