<?xml version="1.0" encoding="iso-8859-1"?>
<!-- Generator: Adobe Illustrator 19.2.1, SVG Export Plug-In . SVG Version: 6.00 Build 0)  -->
<svg version="1.1" xmlns="http://www.w3.org/2000/svg" xmlns:xlink="http://www.w3.org/1999/xlink" x="0px" y="0px"
	 viewBox="0 0 30 32" style="enable-background:new 0 0 30 32;" xml:space="preserve">
<g id="Layer_31">
	<path style="fill:#FFD580;" d="M27,21c1.1,0,2,0.9,2,2s-0.9,2-2,2h-6h-6H9H3c-1.1,0-2-0.9-2-2s0.9-2,2-2H27z"/>
	<path style="fill:#664848;" d="M28,20.185V5c0-0.263-0.107-0.521-0.293-0.707C27.521,4.107,27.263,4,27,4h-9c0-1-0.9-2-2-2V1
		c0-0.552-0.448-1-1-1s-1,0.448-1,1v1c-1.1,0-2,1-2,2H3C2.737,4,2.479,4.107,2.293,4.293C2.107,4.479,2,4.737,2,5v15.185
		C0.839,20.6,0.003,21.696,0,23c0.004,1.657,1.343,3,3,3h4.613l-1.561,4.684c-0.175,0.524,0.109,1.09,0.632,1.265
		c0.524,0.175,1.09-0.108,1.265-0.632L9.721,26H15h5.279l1.772,5.316c0.175,0.524,0.741,0.807,1.265,0.632
		c0.524-0.175,0.807-0.741,0.632-1.265L22.387,26H27c1.657,0,2.996-1.343,3-3C29.997,21.696,29.161,20.6,28,20.185z M4,6h11h11v14H4
		V6z M27,24h-6h-6H9H3c-0.543,0-0.999-0.457-1-1c0.001-0.543,0.457-1,1-1h24c0.543,0,0.999,0.457,1,1C27.999,23.544,27.543,24,27,24
		z"/>
</g>
<g id="Layer_1">
</g>
</svg>
