<?xml version="1.0" encoding="iso-8859-1"?>
<!-- Generator: Adobe Illustrator 19.2.1, SVG Export Plug-In . SVG Version: 6.00 Build 0)  -->
<svg version="1.1" xmlns="http://www.w3.org/2000/svg" xmlns:xlink="http://www.w3.org/1999/xlink" x="0px" y="0px"
	 viewBox="0 0 24.001 31.34" style="enable-background:new 0 0 24.001 31.34;" xml:space="preserve">
<g id="Layer_8">
	<path style="fill:#99DDFF;" d="M15.821,6.06c6.36,8.34,7.18,9.42,7.18,13.28c0,6.06-4.94,11-11,11s-11-4.94-11-11
		c0-3.86,0.82-4.94,7.18-13.28c1.1-1.46,2.36-3.12,3.82-5.06C13.461,2.94,14.721,4.6,15.821,6.06z"/>
	<g>
		<path style="fill:#664848;" d="M22.669,13.893c-1.069-1.912-2.873-4.266-6.053-8.44l0.004,0.005
			c-1.102-1.462-2.361-3.121-3.82-5.06C12.611,0.148,12.315,0,12.001,0s-0.61,0.148-0.799,0.399c-1.459,1.938-2.718,3.597-3.82,5.06
			l0.004-0.005c-3.18,4.174-4.984,6.528-6.053,8.44c-1.081,1.906-1.346,3.462-1.331,5.447c0.003,6.615,5.385,11.997,12,12
			c6.615-0.003,11.997-5.385,12-12C24.016,17.355,23.75,15.799,22.669,13.893z M19.066,26.405c-1.815,1.814-4.31,2.934-7.065,2.935
			c-2.755,0-5.25-1.121-7.065-2.935c-1.814-1.815-2.934-4.31-2.935-7.065c0.015-1.875,0.159-2.789,1.079-4.473
			c0.931-1.678,2.717-4.034,5.897-8.2l0.004-0.005c0.891-1.183,1.896-2.509,3.021-4c1.125,1.492,2.13,2.818,3.021,4l0.004,0.005
			c3.18,4.166,4.966,6.522,5.897,8.2c0.919,1.684,1.064,2.598,1.079,4.473C22,22.095,20.88,24.59,19.066,26.405z"/>
		<path style="fill:#664848;" d="M19.001,18.34c-0.552,0-1,0.448-1,1c0,1.656-0.671,3.15-1.76,4.24
			c-1.09,1.089-2.584,1.759-4.24,1.76c-0.552,0-1,0.448-1,1c0,0.552,0.448,1,1,1c4.414-0.002,7.998-3.586,8-8
			C20.001,18.788,19.553,18.34,19.001,18.34z"/>
	</g>
</g>
<g id="Layer_1">
</g>
</svg>
