<?xml version="1.0" encoding="iso-8859-1"?>
<!-- Generator: Adobe Illustrator 19.2.1, SVG Export Plug-In . SVG Version: 6.00 Build 0)  -->
<svg version="1.1" xmlns="http://www.w3.org/2000/svg" xmlns:xlink="http://www.w3.org/1999/xlink" x="0px" y="0px"
	 viewBox="0 0 28 32.08" style="enable-background:new 0 0 28 32.08;" xml:space="preserve">
<g id="Layer_9">
	<path style="fill:#FFD580;" d="M25,21c1.1,0,2,0.9,2,2v2c0,1.1-0.9,2-2,2H3c-1.1,0-2-0.9-2-2v-2c0-1.1,0.9-2,2-2h6c1.1,0,2-0.9,2-2
		v-4.7C8.64,13.16,7,10.78,7,8c0-4.4,4.08-7.86,8.66-6.8c2.54,0.58,4.58,2.64,5.16,5.18C21.6,9.82,19.8,12.96,17,14.3V19
		c0,1.1,0.9,2,2,2H25z"/>
	<path style="fill:#FF9999;" d="M25,27v2c0,1.1-0.9,2-2,2H5c-1.1,0-2-0.9-2-2v-2H25z"/>
	<g>
		<path style="fill:#664848;" d="M25,20.08h-5.995c-0.553,0-1.003-0.532-1.005-1.08v-4.121c2.453-1.429,4.005-4.084,4.003-6.932
			c0-0.626-0.072-1.275-0.208-1.874c-0.75-3.324-4.313-6.142-7.688-6.151L13.992-0.08C9.593-0.072,6.008,3.551,6,8
			c0,2.866,1.517,5.457,4,6.901v4.095c-0.001,0.553-0.452,1.085-1,1.085H3c-1.654,0-3,1.266-3,2.92v2.003
			c0.002,1.3,0.837,2.41,2,2.824v1.176c0.003,1.649,1.347,3.077,3,3.077h18.003c1.649,0,2.994-1.427,2.997-3.08v-1.172
			c1.162-0.414,1.998-1.524,2-2.828v-2C28,21.346,26.654,20.08,25,20.08z M24,29c-0.001,0.543-0.457,1.08-1,1.08H5
			c-0.543,0-0.999-0.537-1-1.08v-0.92h20V29z M26,25c-0.001,0.543-0.457,1.08-1,1.08H3c-0.543,0-0.999-0.537-1-1.08v-2
			c0-0.55,0.45-0.92,1-0.92h6c1.657,0,2.996-1.423,3-3.08v-4.741c0-0.376-0.232-0.698-0.57-0.862C9.397,12.41,7.999,10.455,8,8.08
			c0.006-3.304,2.689-6,5.996-6c0.005,0,0.009,0,0.013,0c2.428,0,5.258,1.956,5.836,4.514c0.107,0.475,0.158,0.942,0.158,1.393
			c0.002,2.378-1.411,4.44-3.436,5.41C16.208,13.568,16,13.932,16,14.33V19c0.004,1.657,1.343,3.08,3,3.08h6c0.55,0,1,0.37,1,0.92
			V25z"/>
		<path style="fill:#664848;" d="M17,9c0.552,0,1-0.448,1-1c-0.004-2.211-1.789-3.996-4-4c-0.552,0-1,0.448-1,1c0,0.552,0.448,1,1,1
			c1.109,0.001,1.999,0.891,2,2C16,8.552,16.448,9,17,9z"/>
	</g>
</g>
<g id="Layer_1">
</g>
</svg>
