<?xml version="1.0" encoding="iso-8859-1"?>
<!-- Generator: Adobe Illustrator 19.2.1, SVG Export Plug-In . SVG Version: 6.00 Build 0)  -->
<svg version="1.1" xmlns="http://www.w3.org/2000/svg" xmlns:xlink="http://www.w3.org/1999/xlink" x="0px" y="0px"
	 viewBox="0 0 32.381 32.373" style="enable-background:new 0 0 32.381 32.373;" xml:space="preserve">
<g id="Layer_10">
	<path style="fill:#FF9999;" d="M22.901,16.56l-7.36,7.36c-0.86,0.86-1.94,1.34-3.06,1.44c-1.44,0.14-2.92-0.34-4.02-1.44
		c-1.34-1.34-1.76-3.26-1.26-4.96c0.24-0.78,0.64-1.5,1.26-2.12l7.36-7.36l-4.24-4.24l-7.36,7.36c-1.34,1.34-2.26,2.94-2.76,4.66
		c-1.12,3.74-0.2,7.96,2.76,10.9c2.34,2.36,5.5,3.42,8.6,3.18c2.52-0.18,5.02-1.24,6.96-3.18l7.36-7.36L22.901,16.56z"/>
	<g>
		<polygon style="fill:#664848;" points="12.898,32.337 12.895,32.337 12.892,32.337 		"/>
		<polygon style="fill:#664848;" points="3.516,28.87 3.514,28.867 3.511,28.864 		"/>
		<polygon style="fill:#664848;" points="0.501,16.981 0.502,16.978 0.503,16.973 		"/>
		<path style="fill:#664848;" d="M32.088,15.853l-4.24-4.24c-0.391-0.391-1.024-0.391-1.414,0l-4.24,4.24l-7.36,7.365
			c-0.696,0.694-1.547,1.156-2.442,1.156h-0.008l-0.377,0.015C10.971,24.386,9.954,24,9.168,23.215
			c-0.782-0.782-1.17-1.807-1.171-2.84c0-0.379,0.055-0.76,0.162-1.127c0.201-0.645,0.514-1.204,1.009-1.701l7.36-7.36l4.24-4.24
			c0.186-0.186,0.293-0.444,0.293-0.707s-0.107-0.521-0.293-0.707l-4.24-4.24c-0.391-0.391-1.024-0.391-1.414,0l-4.24,4.24
			l-7.36,7.36c-1.46,1.459-2.467,3.21-3.012,5.085C0.157,18.129,0,19.314,0,20.49c-0.001,3.042,1.197,6.075,3.514,8.376
			c2.328,2.348,5.407,3.508,8.483,3.507c0.303,0,0.602-0.013,0.898-0.036c2.749-0.197,5.477-1.354,7.593-3.47l7.36-7.36l4.24-4.24
			c0.186-0.186,0.293-0.444,0.293-0.707C32.381,16.297,32.274,16.039,32.088,15.853z M15.821,2.414l2.826,2.826l-2.826,2.826
			L12.995,5.24L15.821,2.414z M19.074,27.468c-1.763,1.764-4.034,2.905-6.324,2.905h-0.006c-0.252,0-0.501,0.015-0.747,0.015
			c-2.581-0.002-5.129-0.972-7.066-2.925l-0.005-0.009C2.989,25.53,2.001,23.013,2,20.492c0-0.999,0.134-1.993,0.419-2.944
			l0.002-0.008c0.455-1.564,1.287-3.012,2.507-4.232l6.653-6.653l2.826,2.826l-6.653,6.653c-0.744,0.742-1.229,1.621-1.509,2.533
			l-0.004,0.012c-0.162,0.552-0.244,1.124-0.244,1.696c-0.001,1.534,0.585,3.082,1.757,4.253c1.173,1.174,2.719,1.758,4.254,1.757
			c0.191,0,0.38-0.01,0.565-0.028c1.344-0.119,2.652-0.703,3.675-1.728l6.653-6.653l2.826,2.833L19.074,27.468z M27.141,19.386
			l-2.826-2.826l2.826-2.826l2.826,2.826L27.141,19.386z"/>
		<polygon style="fill:#664848;" points="12.578,26.355 12.573,26.356 12.57,26.356 		"/>
	</g>
</g>
<g id="Layer_1">
</g>
</svg>
